<svg width="60" height="80" viewBox="0 0 60 80" fill="none" xmlns="http://www.w3.org/2000/svg">
<rect x="15" y="9" width="33" height="57" rx="3" fill="#7E7E7E" stroke="black" stroke-width="0.5"/>
<path d="M48 59L43.5 61.5V68.5C43.5 68.5 47.5 67.5 48 64V59Z" fill="#444444" stroke="black" stroke-width="0.5"/>
<path d="M48 12L45 14V66L48 63V12Z" fill="#7E7E7E" stroke="black" stroke-width="0.5"/>
<path d="M17.2576 9C13.7576 10 12.5 12.5 12.5 12.5L41.5 11L44.5 9H17.2576Z" fill="#7E7E7E" stroke="black" stroke-width="0.5"/>
<rect x="12" y="11" width="33" height="58" rx="3" fill="#D8D7D2" stroke="black" stroke-width="0.5"/>
<path d="M29.7738 47.9091V61H28.1886V49.571H28.1119L24.9158 51.6932V50.0824L28.1886 47.9091H29.7738Z" fill="white"/>
<path d="M29.7738 47.9091H30.2738C30.2738 47.6329 30.0499 47.4091 29.7738 47.4091V47.9091ZM29.7738 61V61.5C30.0499 61.5 30.2738 61.2761 30.2738 61H29.7738ZM28.1886 61H27.6886C27.6886 61.2761 27.9124 61.5 28.1886 61.5V61ZM28.1886 49.571H28.6886C28.6886 49.2949 28.4647 49.071 28.1886 49.071V49.571ZM28.1119 49.571V49.071C28.0135 49.071 27.9173 49.1001 27.8353 49.1545L28.1119 49.571ZM24.9158 51.6932H24.4158C24.4158 51.8774 24.5171 52.0467 24.6795 52.1338C24.8419 52.2209 25.0389 52.2116 25.1924 52.1097L24.9158 51.6932ZM24.9158 50.0824L24.6392 49.6659C24.4997 49.7585 24.4158 49.9149 24.4158 50.0824H24.9158ZM28.1886 47.9091V47.4091C28.0902 47.4091 27.9939 47.4381 27.912 47.4926L28.1886 47.9091ZM29.2738 47.9091V61H30.2738V47.9091H29.2738ZM29.7738 60.5H28.1886V61.5H29.7738V60.5ZM28.6886 61V49.571H27.6886V61H28.6886ZM28.1886 49.071H28.1119V50.071H28.1886V49.071ZM27.8353 49.1545L24.6393 51.2766L25.1924 52.1097L28.3884 49.9876L27.8353 49.1545ZM25.4158 51.6932V50.0824H24.4158V51.6932H25.4158ZM25.1924 50.4989L28.4652 48.3256L27.912 47.4926L24.6392 49.6659L25.1924 50.4989ZM28.1886 48.4091H29.7738V47.4091H28.1886V48.4091Z" fill="#4F5F6A"/>
<path d="M28 35.179C27.0369 35.179 26.2166 34.9169 25.5391 34.3928C24.8615 33.8643 24.3438 33.0994 23.9858 32.098C23.6278 31.0923 23.4489 29.8778 23.4489 28.4545C23.4489 27.0398 23.6278 25.8317 23.9858 24.8303C24.348 23.8246 24.8679 23.0575 25.5455 22.5291C26.2273 21.9964 27.0455 21.7301 28 21.7301C28.9545 21.7301 29.7706 21.9964 30.4482 22.5291C31.13 23.0575 31.6499 23.8246 32.0078 24.8303C32.37 25.8317 32.5511 27.0398 32.5511 28.4545C32.5511 29.8778 32.3722 31.0923 32.0142 32.098C31.6562 33.0994 31.1385 33.8643 30.4609 34.3928C29.7834 34.9169 28.9631 35.179 28 35.179ZM28 33.7727C28.9545 33.7727 29.696 33.3125 30.2244 32.392C30.7528 31.4716 31.017 30.1591 31.017 28.4545C31.017 27.321 30.8956 26.3558 30.6527 25.5589C30.4141 24.7621 30.0689 24.1548 29.6172 23.7372C29.1697 23.3196 28.6307 23.1108 28 23.1108C27.054 23.1108 26.3146 23.5774 25.782 24.5107C25.2493 25.4396 24.983 26.7543 24.983 28.4545C24.983 29.5881 25.1023 30.5511 25.3409 31.3438C25.5795 32.1364 25.9226 32.7393 26.37 33.1527C26.8217 33.5661 27.3651 33.7727 28 33.7727Z" fill="white"/>
<path d="M25.5391 34.3928L25.2316 34.787L25.2331 34.7882L25.5391 34.3928ZM23.9858 32.098L23.5147 32.2657L23.515 32.2663L23.9858 32.098ZM23.9858 24.8303L23.5154 24.6608L23.515 24.662L23.9858 24.8303ZM25.5455 22.5291L25.8529 22.9234L25.8533 22.9231L25.5455 22.5291ZM30.4482 22.5291L30.1391 22.9222L30.1419 22.9243L30.4482 22.5291ZM32.0078 24.8303L31.5368 24.9979L31.5376 25.0003L32.0078 24.8303ZM32.0142 32.098L32.485 32.2663L32.4853 32.2657L32.0142 32.098ZM30.4609 34.3928L30.7669 34.7882L30.7684 34.787L30.4609 34.3928ZM30.2244 32.392L29.7908 32.1431L29.7908 32.1431L30.2244 32.392ZM30.6527 25.5589L30.1737 25.7024L30.1744 25.7047L30.6527 25.5589ZM29.6172 23.7372L29.276 24.1027L29.2778 24.1044L29.6172 23.7372ZM25.782 24.5107L26.2157 24.7594L26.2162 24.7585L25.782 24.5107ZM25.3409 31.3438L24.8621 31.4879L24.8621 31.4879L25.3409 31.3438ZM26.37 33.1527L26.0307 33.52L26.0325 33.5216L26.37 33.1527ZM28 34.679C27.1332 34.679 26.4242 34.4453 25.845 33.9973L25.2331 34.7882C26.0091 35.3885 26.9407 35.679 28 35.679V34.679ZM25.8465 33.9985C25.2597 33.5408 24.7902 32.8631 24.4566 31.9297L23.515 32.2663C23.8973 33.3358 24.4633 34.1878 25.2316 34.787L25.8465 33.9985ZM24.4568 31.9303C24.1232 30.9931 23.9489 29.8386 23.9489 28.4545H22.9489C22.9489 29.9171 23.1324 31.1916 23.5147 32.2657L24.4568 31.9303ZM23.9489 28.4545C23.9489 27.0793 24.1232 25.9314 24.4566 24.9986L23.515 24.662C23.1325 25.7319 22.9489 27.0002 22.9489 28.4545H23.9489ZM24.4562 24.9997C24.7942 24.0612 25.2661 23.3811 25.8529 22.9234L25.238 22.1348C24.4697 22.734 23.9018 23.5879 23.5154 24.6608L24.4562 24.9997ZM25.8533 22.9231C26.438 22.4663 27.1448 22.2301 28 22.2301V21.2301C26.9461 21.2301 26.0165 21.5266 25.2376 22.1351L25.8533 22.9231ZM28 22.2301C28.8552 22.2301 29.5592 22.4663 30.1391 22.9222L30.7572 22.136C29.982 21.5266 29.0539 21.2301 28 21.2301V22.2301ZM30.1419 22.9243C30.732 23.3817 31.2032 24.0609 31.5368 24.9979L32.4789 24.6626C32.0965 23.5883 31.5279 22.7334 30.7544 22.1339L30.1419 22.9243ZM31.5376 25.0003C31.8748 25.9326 32.0511 27.0798 32.0511 28.4545H33.0511C33.0511 26.9997 32.8652 25.7308 32.478 24.6602L31.5376 25.0003ZM32.0511 28.4545C32.0511 29.8386 31.8768 30.9931 31.5432 31.9303L32.4853 32.2657C32.8676 31.1916 33.0511 29.9171 33.0511 28.4545H32.0511ZM31.5434 31.9297C31.2098 32.8631 30.7403 33.5408 30.1535 33.9985L30.7684 34.787C31.5367 34.1878 32.1027 33.3358 32.485 32.2663L31.5434 31.9297ZM30.155 33.9973C29.5758 34.4453 28.8668 34.679 28 34.679V35.679C29.0593 35.679 29.9909 35.3885 30.7669 34.7882L30.155 33.9973ZM28 34.2727C29.1566 34.2727 30.0526 33.6957 30.6581 32.641L29.7908 32.1431C29.3395 32.9293 28.7525 33.2727 28 33.2727V34.2727ZM30.6581 32.641C31.2487 31.612 31.517 30.1988 31.517 28.4545H30.517C30.517 30.1194 30.2569 31.3311 29.7908 32.1431L30.6581 32.641ZM31.517 28.4545C31.517 27.2881 31.3924 26.2708 31.131 25.4132L30.1744 25.7047C30.3988 26.4408 30.517 27.3539 30.517 28.4545H31.517ZM31.1317 25.4155C30.8761 24.562 30.4932 23.8662 29.9566 23.3701L29.2778 24.1044C29.6446 24.4435 29.952 24.9621 30.1737 25.7024L31.1317 25.4155ZM29.9583 23.3717C29.4152 22.8648 28.7531 22.6108 28 22.6108V23.6108C28.5083 23.6108 28.9242 23.7744 29.276 24.1027L29.9583 23.3717ZM28 22.6108C26.8469 22.6108 25.9548 23.1991 25.3477 24.2628L26.2162 24.7585C26.6744 23.9557 27.261 23.6108 28 23.6108V22.6108ZM25.3482 24.2619C24.7538 25.2987 24.483 26.7134 24.483 28.4545H25.483C25.483 26.7951 25.7448 25.5806 26.2157 24.7594L25.3482 24.2619ZM24.483 28.4545C24.483 29.6202 24.6053 30.6349 24.8621 31.4879L25.8197 31.1996C25.5992 30.4674 25.483 29.5559 25.483 28.4545H24.483ZM24.8621 31.4879C25.1176 32.3365 25.4983 33.0281 26.0307 33.52L26.7093 32.7854C26.3469 32.4506 26.0415 31.9362 25.8197 31.1996L24.8621 31.4879ZM26.0325 33.5216C26.5801 34.0226 27.2452 34.2727 28 34.2727V33.2727C27.4849 33.2727 27.0634 33.1095 26.7076 32.7838L26.0325 33.5216Z" fill="#4F5F6A"/>
</svg>
